<!--?xml version="1.0" standalone="no"?-->
              <svg id="sw-js-blob-svg" viewBox="0 0 100 100" xmlns="http://www.w3.org/2000/svg" version="1.1">
                    <defs> 
                        <linearGradient id="sw-gradient" x1="0" x2="1" y1="1" y2="0">
                            <stop id="stop1" stop-color="rgba(74, 222, 128, 1)" offset="0%"></stop>
                            <stop id="stop2" stop-color="rgba(74, 222, 128, 1)" offset="100%"></stop>
                        </linearGradient>
                    </defs>
                <path fill="url(#sw-gradient)" d="M26.4,-31.2C32.6,-26.2,35,-16.4,35.4,-7.2C35.8,1.9,34.2,10.4,30.3,17.8C26.4,25.2,20.1,31.5,12.5,34.2C4.9,37,-4,36.3,-12.7,33.6C-21.3,31,-29.6,26.4,-35.1,19.2C-40.6,11.9,-43.2,1.9,-40.2,-5.6C-37.1,-13.2,-28.3,-18.2,-20.7,-23C-13,-27.8,-6.5,-32.4,1.8,-34.5C10.1,-36.6,20.1,-36.3,26.4,-31.2Z" width="100%" height="100%" transform="translate(50 50)" stroke-width="0" style="transition: all 0.3s ease 0s;"></path>
              </svg>